<?xml version="1.0" encoding="UTF-8"?>
<svg width="210mm" height="297mm" version="1.1" viewBox="0 0 210 297" xmlns="http://www.w3.org/2000/svg" xmlns:cc="http://creativecommons.org/ns#" xmlns:dc="http://purl.org/dc/elements/1.1/" xmlns:rdf="http://www.w3.org/1999/02/22-rdf-syntax-ns#">
<metadata>
<rdf:RDF>
<cc:Work rdf:about="">
<dc:format>image/svg+xml</dc:format>
<dc:type rdf:resource="http://purl.org/dc/dcmitype/StillImage"/>
<dc:title/>
</cc:Work>
</rdf:RDF>
</metadata>
<g transform="translate(-12.473 88.824)">
<g transform="translate(-28.348 22.301)">
<path d="m147.32-3.522c-4.1831-3.284-6.7981-7.3034-7.8871-12.123-0.85024-3.763-0.65915-7.0792 0.66721-11.579 0.18974-0.64372-0.0262-0.74972-2.2357-1.0976-3.5108-0.55281-6.1453-1.9853-9.2196-5.0131l-2.6298-2.5899 0.86587-0.65657c1.3586-1.0302 6.3147-3.3874 8.4264-4.0077 2.988-0.87772 6.9312-0.73999 9.7977 0.34223 1.3185 0.49779 2.6448 0.98464 2.9473 1.0819 0.64758 0.20815 1.2791-0.99139 1.6094-3.0568l0.22381-1.3996h5.2986l-0.22408 1.9066c-0.12325 1.0486-0.56257 2.7911-0.97627 3.8722l-0.75219 1.9656 1.8978 2.0505c3.8856 4.1982 5.426 8.6417 5.1648 14.9-0.13329 3.1944-0.31554 4.0875-1.3243 6.49-0.64335 1.5322-1.8993 3.7445-2.7909 4.9162-1.5721 2.0658-5.638 5.5274-6.4918 5.527-0.23157-1.2e-4 -1.2968-0.68775-2.3672-1.5281zm4.0792-6.6738c3.2222-3.6989 4.4989-9.2837 3.1697-13.865-0.65983-2.2741-2.5568-5.6069-3.9206-6.8882l-0.85294-0.8013-0.91942 0.85525c-4.5285 4.2124-5.7633 11.538-2.9388 17.436 0.95832 2.0009 3.1925 4.7625 3.8529 4.7625 0.16669 0 0.89079-0.67469 1.6091-1.4993zm-8.202-23.932c0.52452-0.23899 0.95367-0.54266 0.95367-0.67483 0-0.39747-2.6254-1.0575-4.2062-1.0575-1.8757 0-4.6641 0.69061-4.4151 1.0935 0.10414 0.16851 0.93561 0.5449 1.8477 0.83642 1.8018 0.57587 4.3093 0.49076 5.82-0.19753z" fill="#7b9375" stroke-width=".35278"/>
<path d="m79.728 43.462c0.1941-0.46875 4.8691-11.23 8.8927-20.47 1.8808-4.3191 2.5143-5.4642 2.8302-5.1153 0.31156 0.34413 10.88 23.432 11.711 25.585 0.12718 0.3293-0.51645 0.44097-2.5417 0.44097h-2.7119l-0.55431-1.4111c-0.39313-1.0008-0.76951-1.4189-1.2945-1.4379-0.40713-0.0147-2.879-0.027-5.4929-0.0273l-4.7527-3.6e-4 -0.69665 1.4384-0.69666 1.4384h-2.4377c-1.8124 0-2.3908-0.11312-2.2551-0.44097zm14.596-8.1139c-0.79798-1.9247-2.6582-6.7519-2.8634-7.4307-0.21974-0.72657-0.90401-0.4764-0.90401 0.33049 0 0.29209-0.635 2.2162-1.4111 4.2757s-1.4111 3.7956-1.4111 3.8578c0 0.0622 1.5896 0.11319 3.5325 0.11319h3.5325zm23.128-4.5861 0.0925-13.141 2.9986-0.10405c6.7294-0.2335 11.643 1.1226 13.799 3.8082 0.55039 0.68564 1.2535 2.2545 1.5812 3.5278 0.50258 1.9534 0.52635 2.6045 0.16043 4.3952-0.23626 1.1562-0.6465 2.5217-0.91165 3.0344-0.52276 1.0109-2.8007 3.1537-3.3526 3.1537-0.69943 0-0.27606 0.88176 2.129 4.434 1.3582 2.0061 2.4694 3.7341 2.4694 3.84s-1.3309 0.19263-2.9576 0.19263h-2.9576l-4.2888-6.7028h-3.5543v6.7028h-5.3002zm10.954 1.3767c1.6223-0.67784 2.4144-2.0427 2.466-4.2492 0.0861-3.6786-1.5098-5.236-5.8314-5.6905l-2.3812-0.25044v5.274c0 2.9007 0.11906 5.3965 0.26458 5.5463 0.37084 0.38168 4.0811-0.0448 5.482-0.63012zm23.181-1.4731v-13.302l5.909 0.16831c7.2506 0.20651 8.7463 0.67533 10.6 3.3226 1.71 2.4416 1.2203 6.1997-0.97031 7.4464-0.58892 0.33515-1.0718 0.72098-1.073 0.8574-1e-3 0.13641 0.55524 0.51256 1.2366 0.83589 2.5893 1.2287 3.5788 3.3518 3.2742 7.0251-0.20231 2.4395-1.4783 4.4054-3.7113 5.718-1.6625 0.97723-1.7688 0.99115-8.4746 1.1103l-6.791 0.12066zm12.45 7.9402c1.3466-1.0592 1.8208-2.8087 1.1783-4.3465-0.83339-1.9946-1.7809-2.3951-5.3866-2.2769l-3.1269 0.10251-0.1028 3.1471c-0.0566 1.7309-0.0218 3.3581 0.0771 3.616 0.131 0.34138 1.0334 0.46889 3.3184 0.46889 2.6124 0 3.29-0.11919 4.0425-0.71107zm-0.80883-11.989c0.92503-0.92503 0.93259-2.8602 0.0144-3.6911-0.89709-0.81185-5.9627-1.1856-6.4145-0.47325-0.34865 0.54971-0.40326 4.299-0.0675 4.6347 0.12935 0.12935 1.4787 0.23518 2.9986 0.23518 2.2931 0 2.8835-0.12009 3.469-0.70555zm19.756 17.124c0-0.14477 2.8551-6.8252 4.0769-9.5393 1.6144-3.5861 5.3123-12.039 6.2233-14.226 0.59215-1.4213 1.2067-2.4532 1.3656-2.293 0.15895 0.16013 2.0585 4.1805 4.2213 8.9342s4.791 10.524 5.8406 12.823 1.9083 4.2438 1.9083 4.3215c0 0.0778-1.189 0.1414-2.6423 0.1414h-2.6423l-0.99589-2.2049c-0.91047-2.0158-4.9837-12.179-5.5492-13.847l-0.23933-0.70555-0.30204 0.70555c-0.40532 0.94679-2.79 7.2485-3.0371 8.0257-0.16553 0.52066 0.0342 0.61736 1.2754 0.61736 1.4486 0 1.4854 0.0311 2.3492 1.9841 0.48261 1.0913 0.77823 2.0835 0.65693 2.2049-0.1213 0.1214-1.5965 0.23536-3.2781 0.25323l-3.0576 0.0325-1.3555 2.9336h-2.409c-1.325-2e-5 -2.409-0.073-2.409-0.16212zm-93.237-40.766c-1.311-1.0312-1.3228-2.8287-0.02537-3.8493 1.8423-1.4492 4.0094-0.44387 4.0094 1.86 0 2.146-2.3151 3.302-3.984 1.9893zm34.567-0.0567c-1.3059-1.1716-1.4011-2.6612-0.24416-3.8182 2.1501-2.1501 5.5836 1.1483 3.616 3.4737-0.98609 1.1654-2.3065 1.3003-3.3718 0.3445zm34.687 0.31429c-2.7366-1.3846-0.8615-5.6473 2.036-4.6283 2.2182 0.78011 2.2108 3.9317-0.0111 4.7063-0.59272 0.20662-1.0937 0.37334-1.1132 0.37047-0.0196-3e-3 -0.4298-0.20467-0.91164-0.44847zm33.861-0.25188c-0.98861-0.98862-0.94648-2.9662 0.0785-3.6842 1.1725-0.82124 2.9469-0.70565 3.6057 0.23489 1.256 1.7931 0.16441 4.1548-1.9203 4.1548-0.58796 0-1.3719-0.31358-1.7639-0.70555z" fill="#f2f2f2" stroke-width=".35278"/>
<text x="92.982147" y="58.586308" fill="#7b9375" font-family="Futura" font-size="9.805px" letter-spacing="2.0717px" stroke-width=".26458" word-spacing=".018521px" style="line-height:1.25" xml:space="preserve"><tspan x="92.982147" y="58.586308" fill="#7b9375" font-family="Futura" stroke-width=".26458">MEDITERRANEAN</tspan></text>
</g>
</g>
</svg>
